<svg width="18" height="20" viewBox="0 0 18 20" fill="none" xmlns="http://www.w3.org/2000/svg">
<path fill-rule="evenodd" clip-rule="evenodd" d="M10.414 18.9L14.657 14.657C15.7758 13.5381 16.5377 12.1127 16.8463 10.5608C17.155 9.00898 16.9965 7.40047 16.391 5.93868C15.7855 4.4769 14.7601 3.22749 13.4445 2.34846C12.1289 1.46943 10.5822 1.00024 9 1.00024C7.41777 1.00024 5.87107 1.46943 4.55548 2.34846C3.2399 3.22749 2.21452 4.4769 1.60901 5.93868C1.00349 7.40047 0.845043 9.00898 1.15369 10.5608C1.46234 12.1127 2.22422 13.5381 3.343 14.657L7.587 18.9C7.96202 19.2746 8.47042 19.485 9.0005 19.485C9.53059 19.485 10.039 19.2746 10.414 18.9ZM12 9C12 10.6569 10.6569 12 9 12C7.34315 12 6 10.6569 6 9C6 7.34315 7.34315 6 9 6C10.6569 6 12 7.34315 12 9Z" fill="#F77546"/>
<path d="M14.657 14.657L15.0106 15.0105L15.0106 15.0105L14.657 14.657ZM10.414 18.9L10.7674 19.2537L10.7676 19.2535L10.414 18.9ZM16.8463 10.5608L16.3559 10.4633V10.4633L16.8463 10.5608ZM16.391 5.93868L16.8529 5.74733L16.391 5.93868ZM4.55548 2.34846L4.83327 2.7642L4.55548 2.34846ZM1.60901 5.93868L1.14707 5.74733H1.14707L1.60901 5.93868ZM1.15369 10.5608L0.663297 10.6584L1.15369 10.5608ZM3.343 14.657L2.98944 15.0105L2.98949 15.0105L3.343 14.657ZM7.587 18.9L7.23349 19.2535L7.23363 19.2537L7.587 18.9ZM14.3034 14.3034L10.0604 18.5464L10.7676 19.2535L15.0106 15.0105L14.3034 14.3034ZM16.3559 10.4633C16.0666 11.9181 15.3523 13.2545 14.3034 14.3034L15.0106 15.0105C16.1993 13.8217 17.0088 12.3072 17.3367 10.6583L16.3559 10.4633ZM15.9291 6.13003C16.4967 7.50045 16.6453 9.00843 16.3559 10.4633L17.3367 10.6584C17.6646 9.00952 17.4963 7.30048 16.8529 5.74733L15.9291 6.13003ZM13.1667 2.7642C14.4001 3.58829 15.3614 4.75961 15.9291 6.13003L16.8529 5.74733C16.2096 4.19419 15.1201 2.86669 13.7223 1.93272L13.1667 2.7642ZM9 1.50024C10.4833 1.50024 11.9334 1.9401 13.1667 2.7642L13.7223 1.93272C12.3245 0.998749 10.6811 0.500244 9 0.500244V1.50024ZM4.83327 2.7642C6.06663 1.9401 7.51666 1.50024 9 1.50024V0.500244C7.31888 0.500244 5.67551 0.998749 4.2777 1.93272L4.83327 2.7642ZM2.07094 6.13003C2.63861 4.75961 3.59991 3.58829 4.83327 2.7642L4.2777 1.93272C2.87989 2.86669 1.79043 4.19419 1.14707 5.74733L2.07094 6.13003ZM1.64409 10.4633C1.35473 9.00843 1.50328 7.50045 2.07094 6.13003L1.14707 5.74733C0.503712 7.30048 0.335358 9.00952 0.663297 10.6584L1.64409 10.4633ZM3.69657 14.3034C2.64771 13.2545 1.93344 11.9181 1.64409 10.4633L0.663297 10.6584C0.991235 12.3072 1.80074 13.8217 2.98944 15.0105L3.69657 14.3034ZM7.94052 18.5464L3.69652 14.3034L2.98949 15.0105L7.23349 19.2535L7.94052 18.5464ZM9.0005 18.985C8.60294 18.985 8.22164 18.8272 7.94038 18.5462L7.23363 19.2537C7.7024 19.722 8.3379 19.985 9.0005 19.985V18.985ZM10.0606 18.5462C9.77937 18.8272 9.39807 18.985 9.0005 18.985V19.985C9.66311 19.985 10.2986 19.722 10.7674 19.2537L10.0606 18.5462ZM9 12.5C10.933 12.5 12.5 10.933 12.5 9H11.5C11.5 10.3807 10.3807 11.5 9 11.5V12.5ZM5.5 9C5.5 10.933 7.067 12.5 9 12.5V11.5C7.61929 11.5 6.5 10.3807 6.5 9H5.5ZM9 5.5C7.067 5.5 5.5 7.067 5.5 9H6.5C6.5 7.61929 7.61929 6.5 9 6.5V5.5ZM12.5 9C12.5 7.067 10.933 5.5 9 5.5V6.5C10.3807 6.5 11.5 7.61929 11.5 9H12.5Z" fill="#2C3E50"/>
</svg>
