<svg width="15" height="14" viewBox="0 0 15 14" fill="none" xmlns="http://www.w3.org/2000/svg">
<path d="M10.8348 0.913818C10.1806 0.913929 9.53827 1.08214 8.97367 1.40117C8.40907 1.72021 7.9426 2.17858 7.62216 2.7292C7.30165 2.17845 6.83504 1.72 6.27026 1.40095C5.70549 1.08191 5.06292 0.913772 4.40857 0.913818C3.4064 0.966072 2.46368 1.38932 1.77651 2.09551C1.08935 2.8017 0.710633 3.73647 0.719158 4.70536C0.719158 9.64621 7.62216 13.0932 7.62216 13.0932C7.62216 13.0932 14.5252 9.64798 14.5252 4.70536C14.5337 3.73633 14.1548 2.80143 13.4675 2.09522C12.7801 1.389 11.8372 0.965852 10.8348 0.913818V0.913818Z" fill="white"/>
</svg>
