<svg width="13" height="13" viewBox="0 0 13 13" fill="none" xmlns="http://www.w3.org/2000/svg">
<path d="M6.5 0.25C3.05 0.25 0.25 3.05 0.25 6.5C0.25 9.95 3.05 12.75 6.5 12.75C9.95 12.75 12.75 9.95 12.75 6.5C12.75 3.05 9.95 0.25 6.5 0.25ZM4.80625 9.18125L2.5625 6.9375C2.31875 6.69375 2.31875 6.3 2.5625 6.05625C2.80625 5.8125 3.2 5.8125 3.44375 6.05625L5.25 7.85625L9.55 3.55625C9.79375 3.3125 10.1875 3.3125 10.4313 3.55625C10.675 3.8 10.675 4.19375 10.4313 4.4375L5.6875 9.18125C5.45 9.425 5.05 9.425 4.80625 9.18125Z" fill="#737373"/>
</svg>
